<svg xmlns="http://www.w3.org/2000/svg" xmlns:xlink="http://www.w3.org/1999/xlink" width="500" zoomAndPan="magnify" viewBox="0 0 375 374.999991" height="500" preserveAspectRatio="xMidYMid meet" version="1.0"><defs><g/><clipPath id="c878c02ab9"><path d="M 160.519531 161.597656 L 196.160156 161.597656 L 196.160156 197.238281 L 160.519531 197.238281 Z M 160.519531 161.597656 " clip-rule="nonzero"/></clipPath><clipPath id="21743a507d"><path d="M 178.339844 161.597656 C 168.496094 161.597656 160.519531 169.574219 160.519531 179.417969 C 160.519531 189.261719 168.496094 197.238281 178.339844 197.238281 C 188.183594 197.238281 196.160156 189.261719 196.160156 179.417969 C 196.160156 169.574219 188.183594 161.597656 178.339844 161.597656 Z M 178.339844 161.597656 " clip-rule="nonzero"/></clipPath><clipPath id="48c2bf55c6"><path d="M 159.6875 160.765625 L 197 160.765625 L 197 198.265625 L 159.6875 198.265625 Z M 159.6875 160.765625 " clip-rule="nonzero"/></clipPath></defs><g fill="#4a01d2" fill-opacity="1"><g transform="translate(107.275616, 194.63137)"><g><path d="M 42.984375 -30.875 C 46.722656 -30.875 49.703125 -29.753906 51.921875 -27.515625 C 54.148438 -25.273438 55.265625 -21.894531 55.265625 -17.375 L 55.265625 0 L 44.609375 0 L 44.609375 -15.640625 C 44.609375 -17.765625 44.207031 -19.332031 43.40625 -20.34375 C 42.601562 -21.351562 41.472656 -21.859375 40.015625 -21.859375 C 38.410156 -21.859375 37.117188 -21.296875 36.140625 -20.171875 C 35.171875 -19.054688 34.6875 -17.359375 34.6875 -15.078125 L 34.6875 0 L 24.046875 0 L 24.046875 -15.640625 C 24.046875 -19.785156 22.515625 -21.859375 19.453125 -21.859375 C 17.804688 -21.859375 16.492188 -21.296875 15.515625 -20.171875 C 14.546875 -19.054688 14.0625 -17.359375 14.0625 -15.078125 L 14.0625 0 L 3.421875 0 L 3.421875 -30.375 L 13.5625 -30.375 L 13.5625 -27.1875 C 14.6875 -28.414062 16.019531 -29.335938 17.5625 -29.953125 C 19.113281 -30.566406 20.804688 -30.875 22.640625 -30.875 C 24.773438 -30.875 26.679688 -30.484375 28.359375 -29.703125 C 30.035156 -28.921875 31.398438 -27.726562 32.453125 -26.125 C 33.648438 -27.65625 35.160156 -28.828125 36.984375 -29.640625 C 38.816406 -30.460938 40.816406 -30.875 42.984375 -30.875 Z M 42.984375 -30.875 "/></g></g></g><g fill="#4a01d2" fill-opacity="1"><g transform="translate(159.907132, 194.63137)"><g><path d="M 18.65625 0.5 C 15.40625 0.5 12.472656 -0.171875 9.859375 -1.515625 C 7.242188 -2.859375 5.195312 -4.722656 3.71875 -7.109375 C 2.25 -9.503906 1.515625 -12.21875 1.515625 -15.25 C 1.515625 -18.238281 2.25 -20.925781 3.71875 -23.3125 C 5.195312 -25.707031 7.234375 -27.566406 9.828125 -28.890625 C 12.429688 -30.210938 15.375 -30.875 18.65625 -30.875 C 21.945312 -30.875 24.898438 -30.210938 27.515625 -28.890625 C 30.128906 -27.566406 32.164062 -25.71875 33.625 -23.34375 C 35.082031 -20.96875 35.8125 -18.269531 35.8125 -15.25 C 35.8125 -12.21875 35.082031 -9.503906 33.625 -7.109375 C 32.164062 -4.722656 30.128906 -2.859375 27.515625 -1.515625 C 24.898438 -0.171875 21.945312 0.5 18.65625 0.5 Z M 18.65625 -7.953125 C 20.53125 -7.953125 22.0625 -8.597656 23.25 -9.890625 C 24.445312 -11.179688 25.046875 -12.96875 25.046875 -15.25 C 25.046875 -17.488281 24.445312 -19.242188 23.25 -20.515625 C 22.0625 -21.785156 20.53125 -22.421875 18.65625 -22.421875 C 16.789062 -22.421875 15.257812 -21.785156 14.0625 -20.515625 C 12.875 -19.242188 12.28125 -17.488281 12.28125 -15.25 C 12.28125 -12.96875 12.875 -11.179688 14.0625 -9.890625 C 15.257812 -8.597656 16.789062 -7.953125 18.65625 -7.953125 Z M 18.65625 -7.953125 "/></g></g></g><g fill="#4a01d2" fill-opacity="1"><g transform="translate(191.295462, 194.63137)"><g><path d="M 35.421875 -30.375 L 22.859375 0 L 11.875 0 L -0.609375 -30.375 L 10.3125 -30.375 L 17.59375 -11.828125 L 25.28125 -30.375 Z M 35.421875 -30.375 "/></g></g></g><g fill="#4a01d2" fill-opacity="1"><g transform="translate(220.105475, 194.63137)"><g><path d="M 3.421875 -30.375 L 14.0625 -30.375 L 14.0625 0 L 3.421875 0 Z M 8.75 -33.734375 C 6.800781 -33.734375 5.226562 -34.273438 4.03125 -35.359375 C 2.84375 -36.441406 2.25 -37.789062 2.25 -39.40625 C 2.25 -41.007812 2.84375 -42.351562 4.03125 -43.4375 C 5.226562 -44.519531 6.800781 -45.0625 8.75 -45.0625 C 10.6875 -45.0625 12.253906 -44.546875 13.453125 -43.515625 C 14.648438 -42.492188 15.25 -41.175781 15.25 -39.5625 C 15.25 -37.882812 14.648438 -36.492188 13.453125 -35.390625 C 12.253906 -34.285156 10.6875 -33.734375 8.75 -33.734375 Z M 8.75 -33.734375 "/></g></g></g><g fill="#4a01d2" fill-opacity="1"><g transform="translate(231.707953, 194.63137)"><g><path d="M 34.46875 -15.125 C 34.46875 -15.050781 34.410156 -14.175781 34.296875 -12.5 L 12.21875 -12.5 C 12.664062 -10.925781 13.535156 -9.71875 14.828125 -8.875 C 16.117188 -8.039062 17.734375 -7.625 19.671875 -7.625 C 21.128906 -7.625 22.390625 -7.828125 23.453125 -8.234375 C 24.515625 -8.648438 25.585938 -9.320312 26.671875 -10.25 L 32.28125 -4.421875 C 29.332031 -1.140625 25.019531 0.5 19.34375 0.5 C 15.789062 0.5 12.664062 -0.171875 9.96875 -1.515625 C 7.28125 -2.859375 5.195312 -4.722656 3.71875 -7.109375 C 2.25 -9.503906 1.515625 -12.21875 1.515625 -15.25 C 1.515625 -18.238281 2.234375 -20.914062 3.671875 -23.28125 C 5.109375 -25.65625 7.097656 -27.515625 9.640625 -28.859375 C 12.179688 -30.203125 15.039062 -30.875 18.21875 -30.875 C 21.238281 -30.875 23.984375 -30.25 26.453125 -29 C 28.921875 -27.75 30.875 -25.9375 32.3125 -23.5625 C 33.75 -21.195312 34.46875 -18.382812 34.46875 -15.125 Z M 18.265625 -23.3125 C 16.628906 -23.3125 15.257812 -22.84375 14.15625 -21.90625 C 13.050781 -20.976562 12.347656 -19.710938 12.046875 -18.109375 L 24.5 -18.109375 C 24.195312 -19.710938 23.492188 -20.976562 22.390625 -21.90625 C 21.285156 -22.84375 19.910156 -23.3125 18.265625 -23.3125 Z M 18.265625 -23.3125 "/></g></g></g><g clip-path="url(#c878c02ab9)"><g clip-path="url(#21743a507d)"><path fill="#ffffff" d="M 160.519531 161.597656 L 196.160156 161.597656 L 196.160156 197.238281 L 160.519531 197.238281 Z M 160.519531 161.597656 " fill-opacity="1" fill-rule="nonzero"/></g></g><g clip-path="url(#48c2bf55c6)"><path fill="#ff2e2e" d="M 192.851562 187.796875 C 191.777344 189.652344 189.621094 190.488281 187.644531 189.964844 L 182.222656 195.386719 L 181.636719 194.800781 C 180.796875 195.648438 179.625 196.175781 178.335938 196.175781 C 175.769531 196.175781 173.6875 194.09375 173.6875 191.53125 C 173.6875 189.574219 174.898438 187.898438 176.613281 187.214844 L 174.914062 185.515625 L 174.222656 186.210938 L 173.632812 186.796875 L 172.488281 185.648438 C 172.425781 187.191406 171.601562 188.667969 170.167969 189.496094 C 167.945312 190.777344 165.101562 190.015625 163.820312 187.796875 C 162.539062 185.574219 163.296875 182.730469 165.519531 181.449219 C 167.4375 180.339844 169.820312 180.757812 171.257812 182.320312 L 184.636719 168.941406 L 185.65625 169.960938 C 185.910156 169.726562 186.191406 169.511719 186.503906 169.332031 C 188.726562 168.050781 191.566406 168.8125 192.851562 171.035156 C 194.132812 173.257812 193.375 176.101562 191.152344 177.382812 C 191.015625 177.460938 190.871094 177.535156 190.730469 177.597656 L 191.941406 178.8125 L 193.222656 177.53125 L 193.8125 178.121094 L 194.34375 178.648438 L 194.933594 179.238281 L 195.113281 179.421875 L 195.703125 180.007812 L 196.0625 180.371094 L 196.652344 180.957031 L 193.320312 184.289062 C 193.621094 185.433594 193.488281 186.691406 192.851562 187.796875 Z M 163.820312 171.035156 C 165.101562 168.8125 167.945312 168.050781 170.167969 169.332031 C 172.390625 170.617188 173.148438 173.457031 171.871094 175.679688 C 170.585938 177.90625 167.746094 178.664062 165.519531 177.382812 C 163.296875 176.101562 162.539062 173.257812 163.820312 171.035156 Z M 178.335938 162.65625 C 180.902344 162.65625 182.984375 164.734375 182.984375 167.300781 C 182.984375 169.863281 180.902344 171.949219 178.335938 171.949219 C 175.769531 171.949219 173.6875 169.863281 173.6875 167.300781 C 173.6875 164.734375 175.769531 162.65625 178.335938 162.65625 Z M 178.335938 160.765625 C 168.035156 160.765625 159.6875 169.113281 159.6875 179.414062 C 159.6875 189.714844 168.035156 198.0625 178.335938 198.0625 C 188.636719 198.0625 196.984375 189.714844 196.984375 179.414062 C 196.984375 169.113281 188.636719 160.765625 178.335938 160.765625 " fill-opacity="1" fill-rule="nonzero"/></g><path fill="#ff2e2e" d="M 193.5625 182.148438 L 192.886719 182.828125 C 192.855469 182.859375 192.816406 182.871094 192.777344 182.871094 C 192.738281 182.871094 192.695312 182.855469 192.664062 182.824219 L 192.605469 182.765625 L 191.535156 181.699219 L 191.527344 181.6875 C 191.464844 181.625 191.464844 181.527344 191.523438 181.46875 L 192.203125 180.789062 C 192.234375 180.757812 192.273438 180.742188 192.3125 180.742188 C 192.351562 180.742188 192.394531 180.757812 192.421875 180.789062 L 193.5625 181.929688 C 193.621094 181.992188 193.625 182.089844 193.5625 182.148438 Z M 191.667969 184.042969 L 190.992188 184.722656 C 190.960938 184.753906 190.921875 184.765625 190.882812 184.765625 C 190.84375 184.765625 190.800781 184.75 190.769531 184.71875 L 189.632812 183.582031 C 189.570312 183.519531 189.570312 183.421875 189.628906 183.363281 L 190.308594 182.683594 C 190.339844 182.652344 190.378906 182.636719 190.417969 182.636719 C 190.457031 182.636719 190.5 182.652344 190.527344 182.683594 L 191.667969 183.824219 C 191.726562 183.886719 191.730469 183.984375 191.667969 184.042969 Z M 189.777344 185.9375 L 189.097656 186.617188 C 189.066406 186.648438 189.027344 186.660156 188.988281 186.660156 C 188.949219 186.660156 188.90625 186.644531 188.875 186.617188 L 187.738281 185.476562 C 187.675781 185.414062 187.675781 185.316406 187.738281 185.257812 L 188.417969 184.578125 C 188.445312 184.546875 188.484375 184.53125 188.523438 184.53125 C 188.5625 184.53125 188.601562 184.550781 188.636719 184.578125 L 189.773438 185.71875 C 189.835938 185.78125 189.835938 185.878906 189.777344 185.9375 Z M 187.882812 187.832031 L 187.203125 188.511719 C 187.175781 188.539062 187.132812 188.554688 187.097656 188.554688 C 187.054688 188.554688 187.011719 188.539062 186.980469 188.507812 L 185.84375 187.371094 C 185.78125 187.308594 185.78125 187.210938 185.84375 187.152344 L 186.523438 186.472656 C 186.554688 186.441406 186.589844 186.425781 186.628906 186.425781 C 186.667969 186.425781 186.707031 186.445312 186.738281 186.472656 L 187.878906 187.613281 C 187.941406 187.671875 187.941406 187.773438 187.882812 187.832031 Z M 185.988281 189.726562 L 185.308594 190.40625 C 185.277344 190.433594 185.238281 190.449219 185.203125 190.449219 C 185.160156 190.449219 185.121094 190.433594 185.089844 190.402344 L 183.949219 189.261719 C 183.886719 189.203125 183.886719 189.105469 183.949219 189.046875 L 184.628906 188.367188 C 184.65625 188.335938 184.695312 188.324219 184.734375 188.324219 C 184.773438 188.324219 184.816406 188.335938 184.847656 188.371094 L 185.984375 189.507812 C 186.046875 189.566406 186.046875 189.667969 185.988281 189.726562 Z M 184.09375 191.621094 L 183.414062 192.300781 C 183.382812 192.328125 183.34375 192.34375 183.304688 192.34375 C 183.265625 192.34375 183.226562 192.328125 183.195312 192.296875 L 182.054688 191.160156 C 181.996094 191.097656 181.996094 191 182.054688 190.941406 L 182.734375 190.257812 C 182.75 190.242188 182.773438 190.230469 182.796875 190.226562 C 182.8125 190.21875 182.828125 190.214844 182.839844 190.214844 C 182.878906 190.214844 182.921875 190.230469 182.953125 190.261719 L 184.089844 191.402344 C 184.152344 191.460938 184.152344 191.5625 184.09375 191.621094 Z M 181.332031 189.628906 L 178.59375 186.890625 L 175.964844 184.265625 C 175.695312 183.992188 175.695312 183.558594 175.964844 183.289062 L 177.4375 181.816406 L 180.738281 178.519531 L 184.421875 174.832031 L 184.554688 174.703125 C 184.6875 174.566406 184.867188 174.5 185.042969 174.5 C 185.21875 174.5 185.394531 174.566406 185.53125 174.703125 L 188.832031 178.003906 L 190.890625 180.066406 C 191.160156 180.335938 191.160156 180.773438 190.890625 181.042969 L 182.304688 189.628906 C 182.171875 189.761719 181.996094 189.828125 181.816406 189.828125 C 181.640625 189.828125 181.464844 189.761719 181.332031 189.628906 Z M 175.191406 180.503906 C 175.128906 180.445312 175.128906 180.34375 175.191406 180.285156 L 175.789062 179.6875 L 175.867188 179.605469 C 175.898438 179.578125 175.9375 179.5625 175.976562 179.5625 C 176.015625 179.5625 176.054688 179.578125 176.085938 179.609375 L 177.226562 180.746094 C 177.285156 180.808594 177.289062 180.90625 177.230469 180.96875 L 176.757812 181.4375 L 176.546875 181.644531 C 176.519531 181.675781 176.480469 181.691406 176.441406 181.691406 C 176.402344 181.691406 176.359375 181.675781 176.328125 181.644531 Z M 175.335938 182.863281 L 174.652344 183.542969 C 174.625 183.570312 174.585938 183.585938 174.546875 183.585938 C 174.507812 183.585938 174.464844 183.570312 174.433594 183.539062 L 173.296875 182.398438 C 173.234375 182.339844 173.234375 182.238281 173.292969 182.179688 L 173.976562 181.5 C 174.003906 181.472656 174.039062 181.457031 174.082031 181.457031 C 174.121094 181.457031 174.160156 181.472656 174.191406 181.503906 L 175.332031 182.640625 C 175.390625 182.703125 175.394531 182.800781 175.335938 182.863281 Z M 177.082031 178.390625 L 177.761719 177.714844 C 177.789062 177.683594 177.832031 177.667969 177.871094 177.667969 C 177.910156 177.667969 177.949219 177.683594 177.980469 177.714844 L 179.121094 178.855469 C 179.179688 178.914062 179.183594 179.015625 179.121094 179.070312 L 178.441406 179.753906 C 178.414062 179.78125 178.375 179.796875 178.335938 179.796875 C 178.296875 179.796875 178.253906 179.78125 178.222656 179.75 L 177.085938 178.609375 C 177.023438 178.550781 177.023438 178.453125 177.082031 178.390625 Z M 178.976562 176.496094 L 179.65625 175.820312 C 179.6875 175.789062 179.726562 175.773438 179.761719 175.773438 C 179.804688 175.773438 179.84375 175.789062 179.875 175.820312 L 181.011719 176.960938 C 181.074219 177.019531 181.078125 177.117188 181.015625 177.175781 L 180.355469 177.835938 L 180.335938 177.859375 C 180.308594 177.886719 180.269531 177.902344 180.230469 177.902344 C 180.191406 177.902344 180.148438 177.886719 180.117188 177.851562 L 178.980469 176.71875 C 178.917969 176.65625 178.917969 176.558594 178.976562 176.496094 Z M 180.871094 174.605469 L 181.550781 173.925781 C 181.582031 173.894531 181.621094 173.878906 181.660156 173.878906 C 181.699219 173.878906 181.738281 173.894531 181.769531 173.925781 L 182.910156 175.0625 C 182.96875 175.125 182.972656 175.222656 182.910156 175.285156 L 182.230469 175.964844 C 182.203125 175.992188 182.164062 176.007812 182.125 176.007812 C 182.082031 176.007812 182.042969 175.992188 182.011719 175.960938 L 180.871094 174.824219 C 180.8125 174.761719 180.8125 174.664062 180.871094 174.605469 Z M 182.765625 172.707031 L 183.445312 172.03125 C 183.476562 172 183.515625 171.984375 183.554688 171.984375 C 183.59375 171.984375 183.632812 172 183.664062 172.03125 L 184.242188 172.609375 L 184.804688 173.167969 C 184.863281 173.230469 184.867188 173.328125 184.804688 173.390625 L 184.125 174.070312 C 184.097656 174.097656 184.058594 174.113281 184.019531 174.113281 C 183.976562 174.113281 183.9375 174.097656 183.90625 174.066406 L 182.765625 172.929688 C 182.707031 172.867188 182.703125 172.769531 182.765625 172.707031 Z M 195.113281 180.597656 L 194.78125 180.933594 C 194.75 180.964844 194.710938 180.976562 194.671875 180.976562 C 194.632812 180.976562 194.589844 180.964844 194.558594 180.929688 L 193.421875 179.792969 C 193.359375 179.730469 193.363281 179.632812 193.417969 179.574219 L 193.753906 179.238281 L 193.222656 178.707031 L 192.429688 179.503906 C 192.296875 179.636719 192.121094 179.707031 191.941406 179.707031 C 191.765625 179.707031 191.589844 179.636719 191.453125 179.503906 L 186.089844 174.140625 C 185.824219 173.871094 185.824219 173.433594 186.089844 173.164062 L 186.886719 172.371094 L 186.355469 171.839844 L 186.019531 172.175781 C 185.992188 172.203125 185.953125 172.21875 185.914062 172.21875 C 185.871094 172.21875 185.832031 172.203125 185.800781 172.171875 L 184.753906 171.125 L 184.660156 171.035156 C 184.601562 170.972656 184.601562 170.875 184.660156 170.8125 L 184.996094 170.480469 L 184.636719 170.121094 L 177.859375 176.894531 L 175.816406 178.9375 L 171.386719 183.371094 L 171.746094 183.730469 L 172.078125 183.394531 C 172.109375 183.367188 172.148438 183.351562 172.1875 183.351562 C 172.226562 183.351562 172.269531 183.367188 172.296875 183.398438 L 173.4375 184.535156 C 173.5 184.597656 173.5 184.695312 173.441406 184.753906 L 173.105469 185.089844 L 173.632812 185.621094 L 174.429688 184.824219 C 174.5625 184.691406 174.738281 184.625 174.914062 184.625 C 175.09375 184.625 175.269531 184.691406 175.40625 184.824219 L 177.53125 186.953125 L 180.769531 190.191406 C 181.035156 190.460938 181.035156 190.894531 180.769531 191.167969 L 179.972656 191.960938 L 180.503906 192.488281 L 180.839844 192.15625 C 180.867188 192.125 180.90625 192.113281 180.945312 192.113281 C 180.988281 192.113281 181.027344 192.125 181.054688 192.160156 L 182.195312 193.292969 C 182.257812 193.355469 182.257812 193.457031 182.199219 193.515625 L 181.863281 193.851562 L 182.222656 194.210938 L 186.785156 189.644531 L 193.003906 183.429688 L 195.472656 180.957031 L 195.113281 180.597656 " fill-opacity="1" fill-rule="nonzero"/><g fill="#4a01d2" fill-opacity="1"><g transform="translate(159.688977, 207.501892)"><g><path d="M 6.53125 -6.21875 L 3.8125 0 L 2.671875 0 L -0.046875 -6.21875 L 1.203125 -6.21875 L 3.28125 -1.421875 L 5.375 -6.21875 Z M 6.53125 -6.21875 "/></g></g></g><g fill="#4a01d2" fill-opacity="1"><g transform="translate(172.450411, 207.501892)"><g><path d="M 5.5 -0.96875 L 5.5 0 L 0.828125 0 L 0.828125 -6.21875 L 5.375 -6.21875 L 5.375 -5.25 L 1.984375 -5.25 L 1.984375 -3.640625 L 5 -3.640625 L 5 -2.6875 L 1.984375 -2.6875 L 1.984375 -0.96875 Z M 5.5 -0.96875 "/></g></g></g><g fill="#4a01d2" fill-opacity="1"><g transform="translate(184.687707, 207.501892)"><g><path d="M 4.90625 0 L 3.640625 -1.828125 C 3.585938 -1.816406 3.503906 -1.8125 3.390625 -1.8125 L 1.984375 -1.8125 L 1.984375 0 L 0.828125 0 L 0.828125 -6.21875 L 3.390625 -6.21875 C 3.929688 -6.21875 4.398438 -6.128906 4.796875 -5.953125 C 5.203125 -5.773438 5.507812 -5.519531 5.71875 -5.1875 C 5.9375 -4.851562 6.046875 -4.460938 6.046875 -4.015625 C 6.046875 -3.546875 5.929688 -3.140625 5.703125 -2.796875 C 5.472656 -2.460938 5.144531 -2.210938 4.71875 -2.046875 L 6.15625 0 Z M 4.875 -4.015625 C 4.875 -4.410156 4.742188 -4.710938 4.484375 -4.921875 C 4.222656 -5.140625 3.84375 -5.25 3.34375 -5.25 L 1.984375 -5.25 L 1.984375 -2.765625 L 3.34375 -2.765625 C 3.84375 -2.765625 4.222656 -2.867188 4.484375 -3.078125 C 4.742188 -3.296875 4.875 -3.609375 4.875 -4.015625 Z M 4.875 -4.015625 "/></g></g></g><g fill="#4a01d2" fill-opacity="1"><g transform="translate(197.466909, 207.501892)"><g><path d="M 2.765625 0.09375 C 2.285156 0.09375 1.820312 0.0234375 1.375 -0.109375 C 0.925781 -0.242188 0.570312 -0.425781 0.3125 -0.65625 L 0.71875 -1.5625 C 0.96875 -1.351562 1.273438 -1.1875 1.640625 -1.0625 C 2.015625 -0.9375 2.390625 -0.875 2.765625 -0.875 C 3.222656 -0.875 3.566406 -0.945312 3.796875 -1.09375 C 4.023438 -1.238281 4.140625 -1.4375 4.140625 -1.6875 C 4.140625 -1.863281 4.078125 -2.007812 3.953125 -2.125 C 3.828125 -2.238281 3.664062 -2.328125 3.46875 -2.390625 C 3.269531 -2.453125 3.003906 -2.523438 2.671875 -2.609375 C 2.191406 -2.722656 1.804688 -2.835938 1.515625 -2.953125 C 1.222656 -3.066406 0.96875 -3.242188 0.75 -3.484375 C 0.539062 -3.722656 0.4375 -4.046875 0.4375 -4.453125 C 0.4375 -4.796875 0.53125 -5.109375 0.71875 -5.390625 C 0.90625 -5.671875 1.1875 -5.894531 1.5625 -6.0625 C 1.945312 -6.226562 2.410156 -6.3125 2.953125 -6.3125 C 3.328125 -6.3125 3.695312 -6.265625 4.0625 -6.171875 C 4.4375 -6.078125 4.753906 -5.941406 5.015625 -5.765625 L 4.65625 -4.859375 C 4.382812 -5.023438 4.097656 -5.148438 3.796875 -5.234375 C 3.503906 -5.316406 3.21875 -5.359375 2.9375 -5.359375 C 2.488281 -5.359375 2.148438 -5.28125 1.921875 -5.125 C 1.703125 -4.96875 1.59375 -4.757812 1.59375 -4.5 C 1.59375 -4.320312 1.65625 -4.175781 1.78125 -4.0625 C 1.90625 -3.957031 2.066406 -3.867188 2.265625 -3.796875 C 2.460938 -3.734375 2.726562 -3.660156 3.0625 -3.578125 C 3.53125 -3.472656 3.910156 -3.363281 4.203125 -3.25 C 4.503906 -3.132812 4.757812 -2.957031 4.96875 -2.71875 C 5.175781 -2.476562 5.28125 -2.160156 5.28125 -1.765625 C 5.28125 -1.421875 5.1875 -1.109375 5 -0.828125 C 4.8125 -0.546875 4.523438 -0.320312 4.140625 -0.15625 C 3.765625 0.0078125 3.304688 0.09375 2.765625 0.09375 Z M 2.765625 0.09375 "/></g></g></g><g fill="#4a01d2" fill-opacity="1"><g transform="translate(209.339977, 207.501892)"><g><path d="M 5.5 -0.96875 L 5.5 0 L 0.828125 0 L 0.828125 -6.21875 L 5.375 -6.21875 L 5.375 -5.25 L 1.984375 -5.25 L 1.984375 -3.640625 L 5 -3.640625 L 5 -2.6875 L 1.984375 -2.6875 L 1.984375 -0.96875 Z M 5.5 -0.96875 "/></g></g></g></svg>